<svg width="38" height="38" viewBox="0 0 38 38" fill="none" xmlns="http://www.w3.org/2000/svg">
<g clip-path="url(#clip0_26433_14)">
<path d="M19 2C23.5087 2 27.8327 3.79107 31.0208 6.97918C34.2089 10.1673 36 14.4913 36 19C36 22.3623 35.003 25.6491 33.135 28.4447C31.267 31.2403 28.612 33.4193 25.5056 34.706C22.3993 35.9926 18.9812 36.3293 15.6835 35.6734C12.3858 35.0174 9.35669 33.3983 6.97919 31.0208C4.6017 28.6433 2.98261 25.6142 2.32666 22.3165C1.67071 19.0189 2.00737 15.6007 3.29406 12.4944C4.58075 9.38804 6.75968 6.733 9.55532 4.86502C12.351 2.99703 15.6377 2 19 2Z" fill="#171718" stroke="white" stroke-width="4"/>
<path fill-rule="evenodd" clip-rule="evenodd" d="M16.1731 34.8333H21.1825V21.6499H24.6891C25.023 21.6499 25.0727 19.8411 25.1126 19.4932C25.1959 18.769 25.3332 17.8648 25.3332 17.1397H21.1825V14.2255C21.1825 13.3513 21.9355 12.9765 22.8284 12.9765H25.3332V8.46638H25.0469C21.6928 8.46638 19.1236 8.16014 17.3717 9.83666C16.7089 10.4708 16.2182 11.8156 16.175 13.0478C16.1525 13.693 16.1015 14.4341 16.1015 15.1969C16.1015 15.6005 16.264 17.1397 15.8868 17.1397H12.6665V21.6499H16.1015L16.1731 34.8333Z" fill="#FEFEFE"/>
</g>
<defs>
<clipPath id="clip0_26433_14">
<rect width="38" height="38" fill="white"/>
</clipPath>
</defs>
</svg>
